<svg xmlns="http://www.w3.org/2000/svg" viewBox="0 0 512 512" width="512" height="512">
  <defs>
    <linearGradient id="iris" x1="0" y1="0" x2="0" y2="1">
      <stop offset="0" stop-color="#3b2aa8"/>
      <stop offset="0.55" stop-color="#6f5cff"/>
      <stop offset="1" stop-color="#63f0ff"/>
    </linearGradient>
    <linearGradient id="hair" x1="0" y1="0" x2="0" y2="1">
      <stop offset="0" stop-color="#eeeaff"/>
      <stop offset="1" stop-color="#d9d2ff"/>
    </linearGradient>
    <linearGradient id="hoodie" x1="0" y1="0" x2="0" y2="1">
      <stop offset="0" stop-color="#8c73ff"/>
      <stop offset="1" stop-color="#6a4cf5"/>
    </linearGradient>
    <radialGradient id="blush">
      <stop offset="0" stop-color="#ff8fb1" stop-opacity="0.75"/>
      <stop offset="1" stop-color="#ff8fb1" stop-opacity="0"/>
    </radialGradient>
    <filter id="soft" x="-20%" y="-20%" width="140%" height="140%">
      <feDropShadow dx="0" dy="6" stdDeviation="8" flood-color="#1b1240" flood-opacity="0.25"/>
    </filter>
  </defs>
  <g filter="url(#soft)" transform="rotate(-8 256 300)">
  <!-- back hair -->
  <path d="M112,236 C100,130 170,62 256,62 C342,62 412,130 400,236 C404,300 396,352 380,384
           C366,360 356,330 350,300 L162,300 C156,330 146,360 132,384 C116,352 108,300 112,236 Z"
        fill="#a99cf2"/>
  <path d="M132,384 C126,340 132,310 150,292 L168,318 C160,340 150,364 132,384 Z" fill="#7c6be0" opacity="0.55"/>
  <path d="M380,384 C386,340 380,310 362,292 L344,318 C352,340 362,364 380,384 Z" fill="#7c6be0" opacity="0.55"/>
  <!-- body: hoodie -->
  <path d="M150,512 C146,448 164,388 214,366 L298,366 C348,388 366,448 362,512 Z" fill="url(#hoodie)"/>
  <path d="M214,366 C228,392 284,392 298,366 C290,386 270,398 256,398 C242,398 222,386 214,366 Z" fill="#4f33d1"/>
  <!-- hood edge -->
  <path d="M196,372 C206,356 230,350 256,350 C282,350 306,356 316,372 C300,366 280,364 256,364 C232,364 212,366 196,372 Z" fill="#4f33d1"/>
  <!-- drawstrings -->
  <path d="M240,392 L236,440" stroke="#ffffff" stroke-width="4" stroke-linecap="round"/>
  <path d="M272,392 L276,440" stroke="#ffffff" stroke-width="4" stroke-linecap="round"/>
  <circle cx="236" cy="444" r="5" fill="#63f0ff"/>
  <circle cx="276" cy="444" r="5" fill="#63f0ff"/>
  <!-- Flux emblem -->
  <path d="M262,450 L244,482 L258,482 L250,506 L276,470 L262,470 L270,450 Z" fill="#63f0ff"/>
  <!-- neck -->
  <path d="M236,330 L276,330 L278,362 C266,370 246,370 234,362 Z" fill="#f7c9bb"/>
  <!-- face -->
  <path d="M150,218 C150,150 198,112 256,112 C314,112 362,150 362,218 C362,282 318,332 256,336
           C194,332 150,282 150,218 Z" fill="#ffe9df"/>
  <ellipse cx="190" cy="276" rx="26" ry="16" fill="url(#blush)"/>
  <ellipse cx="322" cy="276" rx="26" ry="16" fill="url(#blush)"/>
  <path d="M180,246 C192,262 224,262 236,246" fill="none" stroke="#2a1f5c"
        stroke-width="6" stroke-linecap="round"/>
  <path d="M182,252 L174,260 M234,252 L242,260" stroke="#2a1f5c" stroke-width="4" stroke-linecap="round"/>
  <path d="M276,246 C288,262 320,262 332,246" fill="none" stroke="#2a1f5c"
        stroke-width="6" stroke-linecap="round"/>
  <path d="M278,252 L270,260 M330,252 L338,260" stroke="#2a1f5c" stroke-width="4" stroke-linecap="round"/>
  <!-- sleepy mouth -->
  <ellipse cx="256" cy="296" rx="8" ry="6" fill="#c23a62"/>
  
  <!-- bangs -->
  <path d="M138,222 C132,132 190,84 256,84 C322,84 380,132 374,222
           C368,202 362,188 354,178 Q352,200 344,212 Q340,176 326,152 Q322,188 306,206
           Q300,168 286,144 Q280,180 262,198 Q256,170 242,146 Q236,182 220,204
           Q214,174 202,154 Q194,192 180,212 Q174,192 166,180 C156,192 146,206 138,222 Z" fill="url(#hair)"/>
  <path d="M286,144 Q280,180 262,198 Q276,176 280,152 Z M242,146 Q236,182 220,204 Q234,184 238,160 Z" fill="#a99cf2" opacity="0.6"/>
  <!-- cyan streak -->
  <path d="M326,150 L306,206 L318,160 C330,134 346,128 356,132 C344,138 334,142 326,150 Z" fill="#5fd6e6"/>
  <!-- side locks -->
  <path d="M146,208 C138,262 144,316 170,352 C164,318 168,280 176,248 Z" fill="url(#hair)"/>
  <path d="M366,208 C374,262 368,316 342,352 C348,318 344,280 336,248 Z" fill="url(#hair)"/>
  <!-- ahoge -->
  <path d="M252,86 C236,56 248,30 276,26 C262,38 258,56 266,84 Z" fill="url(#hair)"/>
  <!-- lightning clip -->
  <path d="M196,160 L180,190 L194,190 L186,214 L212,178 L198,178 L206,160 Z" fill="#ffd166" stroke="#2a1f5c" stroke-width="2.5" stroke-linejoin="round"/>
  <!-- headphones -->
  <path d="M128,214 C120,118 186,58 256,58 C326,58 392,118 384,214" fill="none" stroke="#2b2842"
        stroke-width="16" stroke-linecap="round"/>
  <rect x="104" y="188" width="44" height="78" rx="20" fill="#2b2842"/>
  <rect x="364" y="188" width="44" height="78" rx="20" fill="#2b2842"/>
  <rect x="112" y="200" width="10" height="54" rx="5" fill="#63f0ff"/>
  <rect x="390" y="200" width="10" height="54" rx="5" fill="#63f0ff"/>
  <!-- pillow hug -->
  <rect x="150" y="420" width="212" height="92" rx="40" fill="#f1edff"/>
  <path d="M170,440 C220,428 292,428 342,440" fill="none" stroke="#d9d2ff" stroke-width="6" stroke-linecap="round"/>
  <ellipse cx="170" cy="438" rx="22" ry="18" fill="#ffe9df"/>
  <ellipse cx="342" cy="438" rx="22" ry="18" fill="#ffe9df"/>
  </g>
  <!-- Zzz -->
  <g fill="#7c6be0" font-family="Google Sans Flex, sans-serif" font-weight="800">
    <text x="386" y="132" font-size="52">Z</text>
    <text x="432" y="92" font-size="38" opacity="0.8">z</text>
    <text x="462" y="62" font-size="28" opacity="0.6">z</text>
  </g>
</svg>
